<svg id="svg" version="1.1" xmlns="http://www.w3.org/2000/svg" xmlns:xlink="http://www.w3.org/1999/xlink" width="400" height="400" viewBox="0, 0, 400,400"><g id="svgg"><path id="path0" d="M196.600 32.800 C 196.464 33.020,195.733 33.200,194.976 33.200 C 194.219 33.200,193.600 33.380,193.600 33.600 C 193.600 33.820,193.240 34.000,192.800 34.000 C 192.360 34.000,192.000 34.180,192.000 34.400 C 192.000 34.620,191.712 34.800,191.360 34.800 C 191.009 34.800,190.244 35.306,189.660 35.925 C 189.077 36.543,188.285 37.167,187.900 37.312 C 187.515 37.457,187.200 37.778,187.200 38.027 C 187.200 38.276,186.660 38.983,186.000 39.600 C 185.340 40.217,184.800 41.009,184.800 41.360 C 184.800 41.712,184.620 42.000,184.400 42.000 C 184.180 42.000,184.000 42.360,184.000 42.800 C 184.000 43.240,183.820 43.600,183.600 43.600 C 183.380 43.600,183.200 44.219,183.200 44.976 C 183.200 45.733,183.020 46.464,182.800 46.600 C 182.580 46.736,182.400 48.266,182.400 50.000 C 182.400 51.734,182.580 53.264,182.800 53.400 C 183.020 53.536,183.200 54.267,183.200 55.024 C 183.200 55.781,183.380 56.400,183.600 56.400 C 183.820 56.400,184.000 56.760,184.000 57.200 C 184.000 57.640,184.180 58.000,184.400 58.000 C 184.620 58.000,184.800 58.288,184.800 58.640 C 184.800 58.991,185.340 59.783,186.000 60.400 C 186.660 61.017,187.200 61.724,187.200 61.973 C 187.200 62.222,187.515 62.543,187.900 62.688 C 188.285 62.833,189.077 63.457,189.660 64.075 C 190.244 64.694,191.009 65.200,191.360 65.200 C 191.712 65.200,192.000 65.380,192.000 65.600 C 192.000 65.820,192.360 66.000,192.800 66.000 C 193.240 66.000,193.600 66.180,193.600 66.400 C 193.600 66.620,194.219 66.800,194.976 66.800 C 195.733 66.800,196.464 66.980,196.600 67.200 C 196.750 67.443,199.663 67.600,204.000 67.600 C 208.337 67.600,211.250 67.757,211.400 68.000 C 211.536 68.220,213.066 68.400,214.800 68.400 C 216.534 68.400,218.064 68.580,218.200 68.800 C 218.336 69.020,219.517 69.200,220.824 69.200 C 222.141 69.200,223.200 69.378,223.200 69.600 C 223.200 69.820,223.999 70.000,224.976 70.000 C 225.953 70.000,226.864 70.180,227.000 70.400 C 227.136 70.620,227.856 70.800,228.600 70.800 C 229.344 70.800,230.052 70.961,230.174 71.158 C 230.295 71.355,231.071 71.610,231.897 71.726 C 233.931 72.010,235.637 72.394,236.600 72.785 C 238.460 73.540,244.116 75.200,244.828 75.200 C 245.252 75.200,245.600 75.380,245.600 75.600 C 245.600 75.820,246.140 76.000,246.800 76.000 C 247.460 76.000,248.000 76.180,248.000 76.400 C 248.000 76.620,248.360 76.800,248.800 76.800 C 249.240 76.800,249.600 76.980,249.600 77.200 C 249.600 77.420,250.140 77.600,250.800 77.600 C 251.460 77.600,252.000 77.780,252.000 78.000 C 252.000 78.220,252.360 78.400,252.800 78.400 C 253.240 78.400,253.600 78.580,253.600 78.800 C 253.600 79.020,253.960 79.200,254.400 79.200 C 254.840 79.200,255.200 79.380,255.200 79.600 C 255.200 79.820,255.560 80.000,256.000 80.000 C 256.440 80.000,256.800 80.180,256.800 80.400 C 256.800 80.620,257.160 80.800,257.600 80.800 C 258.040 80.800,258.400 80.946,258.400 81.125 C 258.400 81.304,259.030 81.698,259.800 82.000 C 260.570 82.302,261.200 82.696,261.200 82.875 C 261.200 83.054,261.560 83.200,262.000 83.200 C 262.440 83.200,262.800 83.380,262.800 83.600 C 262.800 83.820,263.160 84.000,263.600 84.000 C 264.040 84.000,264.400 84.180,264.400 84.400 C 264.400 84.620,264.636 84.800,264.925 84.800 C 265.213 84.800,265.836 85.160,266.308 85.600 C 266.780 86.040,267.444 86.400,267.783 86.400 C 268.122 86.400,268.400 86.580,268.400 86.800 C 268.400 87.020,268.636 87.200,268.925 87.200 C 269.213 87.200,269.836 87.560,270.308 88.000 C 270.780 88.440,271.444 88.800,271.783 88.800 C 272.122 88.800,272.400 88.950,272.400 89.132 C 272.400 89.315,272.895 89.720,273.500 90.032 C 274.105 90.345,274.819 90.780,275.086 91.000 C 275.353 91.220,275.841 91.625,276.169 91.900 C 276.498 92.175,276.914 92.400,277.095 92.400 C 277.276 92.400,277.683 92.760,278.000 93.200 C 278.317 93.640,278.807 94.000,279.088 94.000 C 279.369 94.000,280.341 94.720,281.248 95.600 C 282.155 96.480,283.054 97.200,283.246 97.200 C 283.438 97.200,284.692 98.280,286.032 99.600 C 287.373 100.920,288.622 102.000,288.808 102.000 C 289.250 102.000,298.000 110.750,298.000 111.192 C 298.000 111.378,299.080 112.627,300.400 113.968 C 301.720 115.308,302.800 116.562,302.800 116.754 C 302.800 116.946,303.520 117.845,304.400 118.752 C 305.280 119.659,306.000 120.631,306.000 120.912 C 306.000 121.193,306.360 121.683,306.800 122.000 C 307.240 122.317,307.600 122.730,307.600 122.917 C 307.600 123.104,307.825 123.508,308.100 123.815 C 308.994 124.812,309.390 125.381,309.968 126.500 C 310.280 127.105,310.685 127.600,310.868 127.600 C 311.050 127.600,311.200 127.878,311.200 128.217 C 311.200 128.556,311.560 129.220,312.000 129.692 C 312.440 130.164,312.800 130.787,312.800 131.075 C 312.800 131.364,312.980 131.600,313.200 131.600 C 313.420 131.600,313.600 131.878,313.600 132.217 C 313.600 132.556,313.960 133.220,314.400 133.692 C 314.840 134.164,315.200 134.787,315.200 135.075 C 315.200 135.364,315.380 135.600,315.600 135.600 C 315.820 135.600,316.000 135.960,316.000 136.400 C 316.000 136.840,316.180 137.200,316.400 137.200 C 316.620 137.200,316.800 137.560,316.800 138.000 C 316.800 138.440,316.946 138.800,317.125 138.800 C 317.304 138.800,317.698 139.430,318.000 140.200 C 318.302 140.970,318.696 141.600,318.875 141.600 C 319.054 141.600,319.200 141.960,319.200 142.400 C 319.200 142.840,319.380 143.200,319.600 143.200 C 319.820 143.200,320.000 143.560,320.000 144.000 C 320.000 144.440,320.180 144.800,320.400 144.800 C 320.620 144.800,320.800 145.160,320.800 145.600 C 320.800 146.040,320.980 146.400,321.200 146.400 C 321.420 146.400,321.600 146.749,321.600 147.176 C 321.600 147.603,321.780 148.064,322.000 148.200 C 322.220 148.336,322.400 148.887,322.400 149.424 C 322.400 149.961,322.580 150.400,322.800 150.400 C 323.020 150.400,323.200 150.749,323.200 151.176 C 323.200 151.603,323.380 152.064,323.600 152.200 C 323.820 152.336,324.000 152.887,324.000 153.424 C 324.000 153.961,324.180 154.400,324.400 154.400 C 324.620 154.400,324.800 154.756,324.800 155.192 C 324.800 155.627,325.250 157.324,325.800 158.962 C 326.350 160.601,326.800 162.314,326.800 162.771 C 326.800 163.227,326.960 163.600,327.156 163.600 C 327.491 163.600,327.717 164.522,328.258 168.103 C 328.382 168.929,328.645 169.705,328.842 169.826 C 329.039 169.948,329.200 170.656,329.200 171.400 C 329.200 172.144,329.380 172.864,329.600 173.000 C 329.820 173.136,330.000 174.011,330.000 174.944 C 330.000 175.877,330.164 176.811,330.365 177.020 C 330.747 177.419,331.085 180.042,331.444 185.400 C 331.562 187.160,331.825 188.771,332.029 188.980 C 332.545 189.508,332.517 210.681,332.000 211.000 C 331.780 211.136,331.600 212.666,331.600 214.400 C 331.600 216.134,331.420 217.664,331.200 217.800 C 330.980 217.936,330.800 219.106,330.800 220.400 C 330.800 221.694,330.620 222.864,330.400 223.000 C 330.180 223.136,330.000 224.036,330.000 225.000 C 330.000 225.964,329.820 226.864,329.600 227.000 C 329.380 227.136,329.200 227.856,329.200 228.600 C 329.200 229.344,329.039 230.052,328.842 230.174 C 328.645 230.295,328.382 231.071,328.258 231.897 C 327.717 235.478,327.491 236.400,327.156 236.400 C 326.960 236.400,326.800 236.773,326.800 237.229 C 326.800 237.686,326.350 239.399,325.800 241.038 C 325.250 242.676,324.800 244.373,324.800 244.808 C 324.800 245.244,324.620 245.600,324.400 245.600 C 324.180 245.600,324.000 246.039,324.000 246.576 C 324.000 247.113,323.820 247.664,323.600 247.800 C 323.380 247.936,323.200 248.397,323.200 248.824 C 323.200 249.251,323.020 249.600,322.800 249.600 C 322.580 249.600,322.400 250.039,322.400 250.576 C 322.400 251.113,322.220 251.664,322.000 251.800 C 321.780 251.936,321.600 252.397,321.600 252.824 C 321.600 253.251,321.420 253.600,321.200 253.600 C 320.980 253.600,320.800 253.960,320.800 254.400 C 320.800 254.840,320.620 255.200,320.400 255.200 C 320.180 255.200,320.000 255.560,320.000 256.000 C 320.000 256.440,319.820 256.800,319.600 256.800 C 319.380 256.800,319.200 257.160,319.200 257.600 C 319.200 258.040,319.054 258.400,318.875 258.400 C 318.696 258.400,318.302 259.030,318.000 259.800 C 317.698 260.570,317.304 261.200,317.125 261.200 C 316.946 261.200,316.800 261.560,316.800 262.000 C 316.800 262.440,316.620 262.800,316.400 262.800 C 316.180 262.800,316.000 263.160,316.000 263.600 C 316.000 264.040,315.820 264.400,315.600 264.400 C 315.380 264.400,315.200 264.636,315.200 264.925 C 315.200 265.213,314.840 265.836,314.400 266.308 C 313.960 266.780,313.600 267.444,313.600 267.783 C 313.600 268.122,313.420 268.400,313.200 268.400 C 312.980 268.400,312.800 268.636,312.800 268.925 C 312.800 269.213,312.440 269.836,312.000 270.308 C 311.560 270.780,311.200 271.444,311.200 271.783 C 311.200 272.122,311.050 272.400,310.868 272.400 C 310.685 272.400,310.280 272.895,309.968 273.500 C 309.655 274.105,309.220 274.819,309.000 275.086 C 308.780 275.353,308.375 275.841,308.100 276.169 C 307.825 276.498,307.600 276.914,307.600 277.095 C 307.600 277.276,307.240 277.683,306.800 278.000 C 306.360 278.317,306.000 278.769,306.000 279.004 C 306.000 279.240,305.280 280.228,304.400 281.200 C 303.520 282.172,302.800 283.109,302.800 283.281 C 302.800 283.454,301.720 284.692,300.400 286.032 C 299.080 287.373,298.000 288.622,298.000 288.808 C 298.000 289.250,289.250 298.000,288.808 298.000 C 288.622 298.000,287.373 299.080,286.032 300.400 C 284.692 301.720,283.416 302.800,283.198 302.800 C 282.980 302.800,282.059 303.520,281.152 304.400 C 280.245 305.280,279.295 306.000,279.040 306.000 C 278.785 306.000,278.317 306.360,278.000 306.800 C 277.683 307.240,277.270 307.600,277.083 307.600 C 276.896 307.600,276.492 307.825,276.185 308.100 C 275.188 308.994,274.619 309.390,273.500 309.968 C 272.895 310.280,272.400 310.685,272.400 310.868 C 272.400 311.050,272.122 311.200,271.783 311.200 C 271.444 311.200,270.780 311.560,270.308 312.000 C 269.836 312.440,269.213 312.800,268.925 312.800 C 268.636 312.800,268.400 312.980,268.400 313.200 C 268.400 313.420,268.122 313.600,267.783 313.600 C 267.444 313.600,266.780 313.960,266.308 314.400 C 265.836 314.840,265.213 315.200,264.925 315.200 C 264.636 315.200,264.400 315.380,264.400 315.600 C 264.400 315.820,264.040 316.000,263.600 316.000 C 263.160 316.000,262.800 316.180,262.800 316.400 C 262.800 316.620,262.440 316.800,262.000 316.800 C 261.560 316.800,261.200 316.946,261.200 317.125 C 261.200 317.304,260.570 317.698,259.800 318.000 C 259.030 318.302,258.400 318.696,258.400 318.875 C 258.400 319.054,258.040 319.200,257.600 319.200 C 257.160 319.200,256.800 319.380,256.800 319.600 C 256.800 319.820,256.440 320.000,256.000 320.000 C 255.560 320.000,255.200 320.180,255.200 320.400 C 255.200 320.620,254.840 320.800,254.400 320.800 C 253.960 320.800,253.600 320.980,253.600 321.200 C 253.600 321.420,253.251 321.600,252.824 321.600 C 252.397 321.600,251.936 321.780,251.800 322.000 C 251.664 322.220,251.113 322.400,250.576 322.400 C 250.039 322.400,249.600 322.580,249.600 322.800 C 249.600 323.020,249.240 323.200,248.800 323.200 C 248.360 323.200,248.000 323.380,248.000 323.600 C 248.000 323.820,247.460 324.000,246.800 324.000 C 246.140 324.000,245.600 324.180,245.600 324.400 C 245.600 324.620,245.252 324.800,244.828 324.800 C 244.116 324.800,238.460 326.460,236.600 327.215 C 235.637 327.606,233.931 327.990,231.897 328.274 C 231.071 328.390,230.295 328.645,230.174 328.842 C 230.052 329.039,229.344 329.200,228.600 329.200 C 227.856 329.200,227.136 329.380,227.000 329.600 C 226.864 329.820,225.953 330.000,224.976 330.000 C 223.999 330.000,223.200 330.180,223.200 330.400 C 223.200 330.625,222.075 330.800,220.624 330.800 C 219.207 330.800,217.936 330.980,217.800 331.200 C 217.664 331.420,216.224 331.600,214.600 331.600 C 212.976 331.600,211.536 331.780,211.400 332.000 C 211.081 332.516,189.109 332.545,188.580 332.030 C 188.371 331.827,186.850 331.560,185.200 331.438 C 178.653 330.953,176.800 330.716,176.800 330.366 C 176.800 330.165,176.001 330.000,175.024 330.000 C 174.047 330.000,173.136 329.820,173.000 329.600 C 172.864 329.380,172.144 329.200,171.400 329.200 C 170.656 329.200,169.948 329.039,169.826 328.842 C 169.705 328.645,168.929 328.382,168.103 328.258 C 164.522 327.717,163.600 327.491,163.600 327.156 C 163.600 326.960,163.227 326.800,162.771 326.800 C 162.314 326.800,160.601 326.350,158.962 325.800 C 157.324 325.250,155.627 324.800,155.192 324.800 C 154.756 324.800,154.400 324.620,154.400 324.400 C 154.400 324.180,153.961 324.000,153.424 324.000 C 152.887 324.000,152.336 323.820,152.200 323.600 C 152.064 323.380,151.603 323.200,151.176 323.200 C 150.749 323.200,150.400 323.020,150.400 322.800 C 150.400 322.580,149.961 322.400,149.424 322.400 C 148.887 322.400,148.336 322.220,148.200 322.000 C 148.064 321.780,147.603 321.600,147.176 321.600 C 146.749 321.600,146.400 321.420,146.400 321.200 C 146.400 320.980,146.040 320.800,145.600 320.800 C 145.160 320.800,144.800 320.620,144.800 320.400 C 144.800 320.180,144.440 320.000,144.000 320.000 C 143.560 320.000,143.200 319.820,143.200 319.600 C 143.200 319.380,142.840 319.200,142.400 319.200 C 141.960 319.200,141.600 319.054,141.600 318.875 C 141.600 318.696,140.970 318.302,140.200 318.000 C 139.430 317.698,138.800 317.304,138.800 317.125 C 138.800 316.946,138.440 316.800,138.000 316.800 C 137.560 316.800,137.200 316.620,137.200 316.400 C 137.200 316.180,136.840 316.000,136.400 316.000 C 135.960 316.000,135.600 315.820,135.600 315.600 C 135.600 315.380,135.364 315.200,135.075 315.200 C 134.787 315.200,134.164 314.840,133.692 314.400 C 133.220 313.960,132.556 313.600,132.217 313.600 C 131.878 313.600,131.600 313.442,131.600 313.249 C 131.600 313.055,131.060 312.673,130.400 312.400 C 129.740 312.127,129.200 311.745,129.200 311.551 C 129.200 311.358,128.840 311.200,128.400 311.200 C 127.960 311.200,127.600 311.050,127.600 310.868 C 127.600 310.685,127.105 310.280,126.500 309.968 C 125.895 309.655,125.181 309.220,124.914 309.000 C 124.647 308.780,124.159 308.375,123.831 308.100 C 123.502 307.825,123.086 307.600,122.905 307.600 C 122.724 307.600,122.317 307.240,122.000 306.800 C 121.683 306.360,121.193 306.000,120.912 306.000 C 120.631 306.000,119.659 305.280,118.752 304.400 C 117.845 303.520,116.946 302.800,116.754 302.800 C 116.562 302.800,115.308 301.720,113.968 300.400 C 112.627 299.080,111.378 298.000,111.192 298.000 C 110.750 298.000,102.000 289.250,102.000 288.808 C 102.000 288.622,100.920 287.373,99.600 286.032 C 98.280 284.692,97.200 283.402,97.200 283.166 C 97.200 282.930,96.480 282.046,95.600 281.200 C 94.720 280.354,94.000 279.418,94.000 279.120 C 94.000 278.821,93.640 278.317,93.200 278.000 C 92.760 277.683,92.400 277.270,92.400 277.083 C 92.400 276.896,92.175 276.492,91.900 276.185 C 91.006 275.188,90.610 274.619,90.032 273.500 C 89.720 272.895,89.315 272.400,89.132 272.400 C 88.950 272.400,88.800 272.122,88.800 271.783 C 88.800 271.444,88.440 270.780,88.000 270.308 C 87.560 269.836,87.200 269.213,87.200 268.925 C 87.200 268.636,87.020 268.400,86.800 268.400 C 86.580 268.400,86.400 268.122,86.400 267.783 C 86.400 267.444,86.040 266.780,85.600 266.308 C 85.160 265.836,84.800 265.213,84.800 264.925 C 84.800 264.636,84.620 264.400,84.400 264.400 C 84.180 264.400,84.000 264.040,84.000 263.600 C 84.000 263.160,83.820 262.800,83.600 262.800 C 83.380 262.800,83.200 262.440,83.200 262.000 C 83.200 261.560,83.054 261.200,82.875 261.200 C 82.696 261.200,82.302 260.570,82.000 259.800 C 81.698 259.030,81.304 258.400,81.125 258.400 C 80.946 258.400,80.800 258.040,80.800 257.600 C 80.800 257.160,80.620 256.800,80.400 256.800 C 80.180 256.800,80.000 256.440,80.000 256.000 C 80.000 255.560,79.820 255.200,79.600 255.200 C 79.380 255.200,79.200 254.840,79.200 254.400 C 79.200 253.960,79.020 253.600,78.800 253.600 C 78.580 253.600,78.400 253.251,78.400 252.824 C 78.400 252.397,78.220 251.936,78.000 251.800 C 77.780 251.664,77.600 251.113,77.600 250.576 C 77.600 250.039,77.420 249.600,77.200 249.600 C 76.980 249.600,76.800 249.251,76.800 248.824 C 76.800 248.397,76.620 247.936,76.400 247.800 C 76.180 247.664,76.000 247.113,76.000 246.576 C 76.000 246.039,75.820 245.600,75.600 245.600 C 75.380 245.600,75.200 245.244,75.200 244.808 C 75.200 244.373,74.750 242.676,74.200 241.038 C 73.650 239.399,73.200 237.686,73.200 237.229 C 73.200 236.773,73.040 236.400,72.844 236.400 C 72.509 236.400,72.283 235.478,71.742 231.897 C 71.618 231.071,71.355 230.295,71.158 230.174 C 70.961 230.052,70.800 229.344,70.800 228.600 C 70.800 227.856,70.620 227.136,70.400 227.000 C 70.180 226.864,70.000 225.964,70.000 225.000 C 70.000 224.036,69.820 223.136,69.600 223.000 C 69.380 222.864,69.200 221.784,69.200 220.600 C 69.200 219.416,69.020 218.336,68.800 218.200 C 68.580 218.064,68.400 216.534,68.400 214.800 C 68.400 213.066,68.220 211.536,68.000 211.400 C 67.455 211.063,67.455 188.937,68.000 188.600 C 68.220 188.464,68.400 186.934,68.400 185.200 C 68.400 183.466,68.580 181.936,68.800 181.800 C 69.020 181.664,69.200 180.483,69.200 179.176 C 69.200 177.859,69.378 176.800,69.600 176.800 C 69.820 176.800,70.000 176.001,70.000 175.024 C 70.000 174.047,70.180 173.136,70.400 173.000 C 70.620 172.864,70.800 172.144,70.800 171.400 C 70.800 170.656,70.980 169.936,71.200 169.800 C 71.420 169.664,71.600 168.944,71.600 168.200 C 71.600 167.456,71.780 166.736,72.000 166.600 C 72.220 166.464,72.400 165.733,72.400 164.976 C 72.400 164.219,72.580 163.600,72.800 163.600 C 73.020 163.600,73.200 163.227,73.200 162.771 C 73.200 162.314,73.650 160.601,74.200 158.962 C 74.750 157.324,75.200 155.627,75.200 155.192 C 75.200 154.756,75.380 154.400,75.600 154.400 C 75.820 154.400,76.000 153.961,76.000 153.424 C 76.000 152.887,76.180 152.336,76.400 152.200 C 76.620 152.064,76.800 151.603,76.800 151.176 C 76.800 150.749,76.980 150.400,77.200 150.400 C 77.420 150.400,77.600 150.051,77.600 149.624 C 77.600 149.197,77.780 148.736,78.000 148.600 C 78.220 148.464,78.400 147.913,78.400 147.376 C 78.400 146.839,78.580 146.400,78.800 146.400 C 79.020 146.400,79.200 146.040,79.200 145.600 C 79.200 145.160,79.380 144.800,79.600 144.800 C 79.820 144.800,80.000 144.440,80.000 144.000 C 80.000 143.560,80.180 143.200,80.400 143.200 C 80.620 143.200,80.800 142.840,80.800 142.400 C 80.800 141.960,80.946 141.600,81.125 141.600 C 81.304 141.600,81.698 140.970,82.000 140.200 C 82.302 139.430,82.696 138.800,82.875 138.800 C 83.054 138.800,83.200 138.440,83.200 138.000 C 83.200 137.560,83.380 137.200,83.600 137.200 C 83.820 137.200,84.000 136.840,84.000 136.400 C 84.000 135.960,84.180 135.600,84.400 135.600 C 84.620 135.600,84.800 135.364,84.800 135.075 C 84.800 134.787,85.160 134.164,85.600 133.692 C 86.040 133.220,86.400 132.556,86.400 132.217 C 86.400 131.878,86.580 131.600,86.800 131.600 C 87.020 131.600,87.200 131.317,87.200 130.971 C 87.200 130.626,87.479 130.064,87.820 129.723 C 88.160 129.382,88.543 128.585,88.670 127.952 C 88.796 127.318,89.040 126.800,89.211 126.800 C 89.560 126.800,90.037 123.449,90.037 121.000 C 90.037 118.413,89.552 115.200,89.161 115.200 C 88.963 115.200,88.796 114.795,88.791 114.300 C 88.786 113.805,88.430 112.950,88.000 112.400 C 87.570 111.850,87.214 111.250,87.209 111.067 C 87.200 110.749,85.968 109.520,83.230 107.100 C 82.546 106.495,81.719 106.000,81.393 106.000 C 81.067 106.000,80.800 105.820,80.800 105.600 C 80.800 105.380,80.440 105.200,80.000 105.200 C 79.560 105.200,79.200 105.020,79.200 104.800 C 79.200 104.580,78.480 104.400,77.600 104.400 C 76.720 104.400,76.000 104.220,76.000 104.000 C 76.000 103.761,74.467 103.600,72.200 103.600 C 69.933 103.600,68.400 103.761,68.400 104.000 C 68.400 104.220,67.860 104.400,67.200 104.400 C 66.540 104.400,66.000 104.580,66.000 104.800 C 66.000 105.020,65.550 105.200,65.000 105.200 C 64.450 105.200,64.000 105.380,64.000 105.600 C 64.000 105.820,63.730 106.000,63.400 106.000 C 63.070 106.000,62.800 106.180,62.800 106.400 C 62.800 106.620,62.544 106.800,62.231 106.800 C 61.620 106.800,58.400 109.893,58.400 110.480 C 58.400 110.675,58.040 111.220,57.600 111.692 C 57.160 112.164,56.800 112.787,56.800 113.075 C 56.800 113.364,56.620 113.600,56.400 113.600 C 56.180 113.600,56.000 113.920,56.000 114.312 C 56.000 114.703,55.640 115.283,55.200 115.600 C 54.760 115.917,54.400 116.497,54.400 116.888 C 54.400 117.280,54.220 117.600,54.000 117.600 C 53.780 117.600,53.600 117.960,53.600 118.400 C 53.600 118.840,53.420 119.200,53.200 119.200 C 52.980 119.200,52.800 119.560,52.800 120.000 C 52.800 120.440,52.620 120.800,52.400 120.800 C 52.180 120.800,52.000 121.160,52.000 121.600 C 52.000 122.040,51.820 122.400,51.600 122.400 C 51.380 122.400,51.200 122.760,51.200 123.200 C 51.200 123.640,51.054 124.000,50.875 124.000 C 50.696 124.000,50.302 124.630,50.000 125.400 C 49.698 126.170,49.304 126.800,49.125 126.800 C 48.946 126.800,48.800 127.160,48.800 127.600 C 48.800 128.040,48.620 128.400,48.400 128.400 C 48.180 128.400,48.000 128.760,48.000 129.200 C 48.000 129.640,47.820 130.000,47.600 130.000 C 47.380 130.000,47.200 130.360,47.200 130.800 C 47.200 131.240,47.020 131.600,46.800 131.600 C 46.580 131.600,46.400 132.039,46.400 132.576 C 46.400 133.113,46.220 133.664,46.000 133.800 C 45.780 133.936,45.600 134.397,45.600 134.824 C 45.600 135.251,45.420 135.600,45.200 135.600 C 44.980 135.600,44.800 135.949,44.800 136.376 C 44.800 136.803,44.620 137.264,44.400 137.400 C 44.180 137.536,44.000 138.087,44.000 138.624 C 44.000 139.161,43.860 139.600,43.689 139.600 C 43.517 139.600,43.061 140.725,42.673 142.100 C 42.286 143.475,41.796 144.913,41.585 145.295 C 41.373 145.677,41.200 146.442,41.200 146.995 C 41.200 147.548,41.020 148.000,40.800 148.000 C 40.580 148.000,40.400 148.540,40.400 149.200 C 40.400 149.860,40.220 150.400,40.000 150.400 C 39.780 150.400,39.600 151.120,39.600 152.000 C 39.600 152.880,39.420 153.600,39.200 153.600 C 38.980 153.600,38.800 154.140,38.800 154.800 C 38.800 155.460,38.620 156.000,38.400 156.000 C 38.180 156.000,38.000 156.720,38.000 157.600 C 38.000 158.480,37.820 159.200,37.600 159.200 C 37.380 159.200,37.200 159.920,37.200 160.800 C 37.200 161.680,37.020 162.400,36.800 162.400 C 36.580 162.400,36.400 163.210,36.400 164.200 C 36.400 165.190,36.220 166.000,36.000 166.000 C 35.780 166.000,35.600 166.900,35.600 168.000 C 35.600 169.100,35.420 170.000,35.200 170.000 C 34.978 170.000,34.800 171.059,34.800 172.376 C 34.800 173.683,34.620 174.864,34.400 175.000 C 34.180 175.136,34.000 176.486,34.000 178.000 C 34.000 179.514,33.820 180.864,33.600 181.000 C 33.370 181.142,33.200 183.263,33.200 186.000 C 33.200 188.737,33.030 190.858,32.800 191.000 C 32.255 191.337,32.255 209.600,32.800 209.600 C 33.043 209.600,33.200 211.392,33.200 214.176 C 33.200 216.796,33.371 218.858,33.600 219.000 C 33.820 219.136,34.000 220.486,34.000 222.000 C 34.000 223.514,34.180 224.864,34.400 225.000 C 34.620 225.136,34.800 226.216,34.800 227.400 C 34.800 228.584,34.980 229.664,35.200 229.800 C 35.420 229.936,35.600 230.937,35.600 232.024 C 35.600 233.111,35.780 234.000,36.000 234.000 C 36.220 234.000,36.400 234.709,36.400 235.576 C 36.400 236.443,36.580 237.264,36.800 237.400 C 37.020 237.536,37.200 238.357,37.200 239.224 C 37.200 240.091,37.380 240.800,37.600 240.800 C 37.820 240.800,38.000 241.520,38.000 242.400 C 38.000 243.280,38.180 244.000,38.400 244.000 C 38.620 244.000,38.800 244.540,38.800 245.200 C 38.800 245.860,38.980 246.400,39.200 246.400 C 39.420 246.400,39.600 247.019,39.600 247.776 C 39.600 248.533,39.780 249.264,40.000 249.400 C 40.220 249.536,40.400 250.177,40.400 250.824 C 40.400 251.471,40.580 252.000,40.800 252.000 C 41.020 252.000,41.200 252.439,41.200 252.976 C 41.200 253.513,41.359 254.051,41.554 254.171 C 41.748 254.292,42.029 255.198,42.177 256.186 C 42.325 257.173,42.616 258.086,42.823 258.214 C 43.030 258.342,43.200 258.887,43.200 259.424 C 43.200 259.961,43.380 260.400,43.600 260.400 C 43.820 260.400,44.000 260.749,44.000 261.176 C 44.000 261.603,44.180 262.064,44.400 262.200 C 44.620 262.336,44.800 262.887,44.800 263.424 C 44.800 263.961,44.980 264.400,45.200 264.400 C 45.420 264.400,45.600 264.760,45.600 265.200 C 45.600 265.640,45.780 266.000,46.000 266.000 C 46.220 266.000,46.400 266.355,46.400 266.788 C 46.400 267.221,46.760 268.217,47.200 269.000 C 47.640 269.783,48.000 270.689,48.000 271.012 C 48.000 271.335,48.180 271.600,48.400 271.600 C 48.620 271.600,48.800 271.960,48.800 272.400 C 48.800 272.840,48.980 273.200,49.200 273.200 C 49.420 273.200,49.600 273.470,49.600 273.800 C 49.600 274.130,49.780 274.400,50.000 274.400 C 50.220 274.400,50.400 274.760,50.400 275.200 C 50.400 275.640,50.580 276.000,50.800 276.000 C 51.020 276.000,51.200 276.360,51.200 276.800 C 51.200 277.240,51.380 277.600,51.600 277.600 C 51.820 277.600,52.000 277.960,52.000 278.400 C 52.000 278.840,52.180 279.200,52.400 279.200 C 52.620 279.200,52.800 279.560,52.800 280.000 C 52.800 280.440,52.980 280.800,53.200 280.800 C 53.420 280.800,53.600 281.036,53.600 281.325 C 53.600 281.613,53.960 282.236,54.400 282.708 C 54.840 283.180,55.200 283.844,55.200 284.183 C 55.200 284.522,55.380 284.800,55.600 284.800 C 55.820 284.800,56.000 285.078,56.000 285.417 C 56.000 285.756,56.360 286.420,56.800 286.892 C 57.240 287.364,57.600 287.987,57.600 288.275 C 57.600 288.564,57.780 288.800,58.000 288.800 C 58.220 288.800,58.400 288.972,58.400 289.182 C 58.400 289.550,59.955 292.084,60.794 293.083 C 61.017 293.349,61.200 293.709,61.201 293.883 C 61.201 294.057,61.741 294.830,62.400 295.600 C 63.059 296.370,63.599 297.185,63.599 297.412 C 63.600 297.638,63.960 298.083,64.400 298.400 C 64.840 298.717,65.200 299.225,65.200 299.528 C 65.200 299.831,65.740 300.583,66.400 301.200 C 67.060 301.817,67.600 302.519,67.600 302.760 C 67.600 303.002,67.780 303.200,68.000 303.200 C 68.220 303.200,68.400 303.398,68.400 303.640 C 68.400 303.881,68.940 304.583,69.600 305.200 C 70.260 305.817,70.800 306.440,70.800 306.586 C 70.800 306.732,71.655 307.701,72.700 308.739 C 73.745 309.777,75.043 311.251,75.584 312.013 C 78.011 315.435,84.990 322.387,88.019 324.400 C 88.515 324.730,89.880 325.945,91.052 327.100 C 92.224 328.255,93.294 329.200,93.431 329.200 C 93.567 329.200,94.183 329.740,94.800 330.400 C 95.417 331.060,96.119 331.600,96.360 331.600 C 96.602 331.600,96.800 331.780,96.800 332.000 C 96.800 332.220,96.982 332.400,97.204 332.400 C 97.426 332.400,98.172 332.940,98.863 333.600 C 99.554 334.260,100.322 334.800,100.571 334.800 C 100.820 334.800,101.283 335.160,101.600 335.600 C 101.917 336.040,102.362 336.400,102.588 336.401 C 102.815 336.401,103.630 336.941,104.400 337.600 C 105.170 338.259,105.943 338.799,106.117 338.799 C 106.291 338.800,106.651 338.983,106.917 339.206 C 107.916 340.045,110.450 341.600,110.818 341.600 C 111.028 341.600,111.200 341.780,111.200 342.000 C 111.200 342.220,111.436 342.400,111.725 342.400 C 112.013 342.400,112.636 342.760,113.108 343.200 C 113.580 343.640,114.244 344.000,114.583 344.000 C 114.922 344.000,115.200 344.180,115.200 344.400 C 115.200 344.620,115.560 344.800,116.000 344.800 C 116.440 344.800,116.800 344.980,116.800 345.200 C 116.800 345.420,117.070 345.600,117.400 345.600 C 117.730 345.600,118.000 345.780,118.000 346.000 C 118.000 346.220,118.270 346.400,118.600 346.400 C 118.930 346.400,119.200 346.580,119.200 346.800 C 119.200 347.020,119.560 347.200,120.000 347.200 C 120.440 347.200,120.800 347.380,120.800 347.600 C 120.800 347.820,121.160 348.000,121.600 348.000 C 122.040 348.000,122.400 348.180,122.400 348.400 C 122.400 348.620,122.760 348.800,123.200 348.800 C 123.640 348.800,124.000 348.980,124.000 349.200 C 124.000 349.420,124.360 349.600,124.800 349.600 C 125.240 349.600,125.600 349.780,125.600 350.000 C 125.600 350.220,125.870 350.400,126.200 350.400 C 126.530 350.400,126.800 350.580,126.800 350.800 C 126.800 351.020,127.160 351.200,127.600 351.200 C 128.040 351.200,128.400 351.380,128.400 351.600 C 128.400 351.820,128.672 352.000,129.005 352.000 C 129.338 352.000,129.968 352.180,130.405 352.400 C 130.842 352.620,131.558 352.980,131.995 353.200 C 132.432 353.420,133.062 353.600,133.395 353.600 C 133.728 353.600,134.000 353.780,134.000 354.000 C 134.000 354.220,134.360 354.400,134.800 354.400 C 135.240 354.400,135.600 354.580,135.600 354.800 C 135.600 355.020,135.962 355.200,136.405 355.200 C 136.848 355.200,137.523 355.359,137.905 355.553 C 138.287 355.748,139.140 356.129,139.800 356.400 C 140.460 356.671,141.307 357.049,141.683 357.239 C 142.058 357.429,143.097 357.702,143.991 357.845 C 144.886 357.988,145.714 358.261,145.832 358.453 C 145.951 358.644,146.487 358.800,147.024 358.800 C 147.561 358.800,148.000 358.980,148.000 359.200 C 148.000 359.420,148.529 359.600,149.176 359.600 C 149.823 359.600,150.464 359.780,150.600 360.000 C 150.736 360.220,151.467 360.400,152.224 360.400 C 152.981 360.400,153.600 360.580,153.600 360.800 C 153.600 361.020,154.140 361.200,154.800 361.200 C 155.460 361.200,156.000 361.380,156.000 361.600 C 156.000 361.820,156.720 362.000,157.600 362.000 C 158.480 362.000,159.200 362.180,159.200 362.400 C 159.200 362.620,160.010 362.800,161.000 362.800 C 161.990 362.800,162.800 362.980,162.800 363.200 C 162.800 363.420,163.520 363.600,164.400 363.600 C 165.280 363.600,166.000 363.780,166.000 364.000 C 166.000 364.220,166.979 364.400,168.176 364.400 C 169.373 364.400,170.464 364.580,170.600 364.800 C 170.736 365.020,171.917 365.200,173.224 365.200 C 174.541 365.200,175.600 365.378,175.600 365.600 C 175.600 365.825,176.725 366.000,178.176 366.000 C 179.593 366.000,180.864 366.180,181.000 366.400 C 181.141 366.629,183.196 366.800,185.800 366.800 C 188.404 366.800,190.459 366.971,190.600 367.200 C 190.753 367.448,194.330 367.600,200.000 367.600 C 205.670 367.600,209.247 367.448,209.400 367.200 C 209.541 366.971,211.596 366.800,214.200 366.800 C 216.804 366.800,218.859 366.629,219.000 366.400 C 219.136 366.180,220.486 366.000,222.000 366.000 C 223.514 366.000,224.864 365.820,225.000 365.600 C 225.136 365.380,226.126 365.200,227.200 365.200 C 228.274 365.200,229.264 365.020,229.400 364.800 C 229.536 364.580,230.627 364.400,231.824 364.400 C 233.021 364.400,234.000 364.220,234.000 364.000 C 234.000 363.780,234.709 363.600,235.576 363.600 C 236.443 363.600,237.264 363.420,237.400 363.200 C 237.536 362.980,238.357 362.800,239.224 362.800 C 240.091 362.800,240.800 362.620,240.800 362.400 C 240.800 362.180,241.520 362.000,242.400 362.000 C 243.280 362.000,244.000 361.820,244.000 361.600 C 244.000 361.380,244.540 361.200,245.200 361.200 C 245.860 361.200,246.400 361.020,246.400 360.800 C 246.400 360.580,247.120 360.400,248.000 360.400 C 248.880 360.400,249.600 360.220,249.600 360.000 C 249.600 359.780,250.140 359.600,250.800 359.600 C 251.460 359.600,252.000 359.440,252.000 359.245 C 252.000 359.050,252.495 358.792,253.100 358.672 C 255.761 358.142,258.000 357.439,258.000 357.133 C 258.000 356.950,258.439 356.800,258.976 356.800 C 259.513 356.800,260.042 356.656,260.151 356.479 C 260.260 356.303,261.261 355.910,262.375 355.607 C 263.489 355.304,264.400 354.908,264.400 354.728 C 264.400 354.547,264.760 354.400,265.200 354.400 C 265.640 354.400,266.000 354.220,266.000 354.000 C 266.000 353.780,266.355 353.600,266.788 353.600 C 267.221 353.600,268.217 353.240,269.000 352.800 C 269.783 352.360,270.689 352.000,271.012 352.000 C 271.335 352.000,271.600 351.820,271.600 351.600 C 271.600 351.380,271.960 351.200,272.400 351.200 C 272.840 351.200,273.200 351.020,273.200 350.800 C 273.200 350.580,273.470 350.400,273.800 350.400 C 274.130 350.400,274.400 350.220,274.400 350.000 C 274.400 349.780,274.760 349.600,275.200 349.600 C 275.640 349.600,276.000 349.420,276.000 349.200 C 276.000 348.980,276.360 348.800,276.800 348.800 C 277.240 348.800,277.600 348.620,277.600 348.400 C 277.600 348.180,277.960 348.000,278.400 348.000 C 278.840 348.000,279.200 347.820,279.200 347.600 C 279.200 347.380,279.560 347.200,280.000 347.200 C 280.440 347.200,280.800 347.020,280.800 346.800 C 280.800 346.580,281.036 346.400,281.325 346.400 C 281.613 346.400,282.236 346.040,282.708 345.600 C 283.180 345.160,283.844 344.800,284.183 344.800 C 284.522 344.800,284.800 344.620,284.800 344.400 C 284.800 344.180,285.120 344.000,285.512 344.000 C 285.903 344.000,286.483 343.640,286.800 343.200 C 287.117 342.760,287.697 342.400,288.088 342.400 C 288.480 342.400,288.800 342.220,288.800 342.000 C 288.800 341.780,289.015 341.600,289.278 341.600 C 289.805 341.600,292.920 339.579,293.133 339.100 C 293.207 338.935,293.477 338.800,293.733 338.799 C 293.990 338.799,294.830 338.259,295.600 337.600 C 296.370 336.941,297.185 336.401,297.412 336.401 C 297.638 336.400,298.083 336.040,298.400 335.600 C 298.717 335.160,299.207 334.800,299.488 334.800 C 299.769 334.800,300.741 334.080,301.648 333.200 C 302.555 332.320,303.473 331.600,303.688 331.600 C 303.903 331.600,304.583 331.060,305.200 330.400 C 305.817 329.740,306.440 329.200,306.586 329.200 C 306.732 329.200,307.701 328.345,308.739 327.300 C 309.777 326.255,311.251 324.957,312.013 324.416 C 315.435 321.989,322.387 315.010,324.400 311.981 C 324.730 311.485,325.945 310.120,327.100 308.948 C 328.255 307.776,329.200 306.706,329.200 306.569 C 329.200 306.433,329.740 305.817,330.400 305.200 C 331.060 304.583,331.600 303.919,331.600 303.724 C 331.600 303.528,332.320 302.572,333.200 301.600 C 334.080 300.628,334.800 299.640,334.800 299.404 C 334.800 299.169,335.160 298.717,335.600 298.400 C 336.040 298.083,336.400 297.638,336.401 297.412 C 336.401 297.185,336.941 296.370,337.600 295.600 C 338.259 294.830,338.799 293.990,338.799 293.733 C 338.800 293.477,338.935 293.207,339.100 293.133 C 339.579 292.920,341.600 289.805,341.600 289.278 C 341.600 289.015,341.780 288.800,342.000 288.800 C 342.220 288.800,342.400 288.564,342.400 288.275 C 342.400 287.987,342.760 287.364,343.200 286.892 C 343.640 286.420,344.000 285.756,344.000 285.417 C 344.000 285.078,344.180 284.800,344.400 284.800 C 344.620 284.800,344.800 284.522,344.800 284.183 C 344.800 283.844,345.160 283.180,345.600 282.708 C 346.040 282.236,346.400 281.613,346.400 281.325 C 346.400 281.036,346.580 280.800,346.800 280.800 C 347.020 280.800,347.200 280.440,347.200 280.000 C 347.200 279.560,347.380 279.200,347.600 279.200 C 347.820 279.200,348.000 278.840,348.000 278.400 C 348.000 277.960,348.180 277.600,348.400 277.600 C 348.620 277.600,348.800 277.240,348.800 276.800 C 348.800 276.360,348.980 276.000,349.200 276.000 C 349.420 276.000,349.600 275.640,349.600 275.200 C 349.600 274.760,349.780 274.400,350.000 274.400 C 350.220 274.400,350.400 274.130,350.400 273.800 C 350.400 273.470,350.580 273.200,350.800 273.200 C 351.020 273.200,351.200 272.840,351.200 272.400 C 351.200 271.960,351.380 271.600,351.600 271.600 C 351.820 271.600,352.000 271.335,352.000 271.012 C 352.000 270.689,352.360 269.783,352.800 269.000 C 353.240 268.217,353.600 267.221,353.600 266.788 C 353.600 266.355,353.780 266.000,354.000 266.000 C 354.220 266.000,354.400 265.640,354.400 265.200 C 354.400 264.760,354.580 264.400,354.800 264.400 C 355.020 264.400,355.200 264.038,355.200 263.595 C 355.200 263.152,355.359 262.477,355.553 262.095 C 355.748 261.713,356.129 260.860,356.400 260.200 C 356.671 259.540,357.049 258.693,357.239 258.317 C 357.429 257.942,357.702 256.903,357.845 256.009 C 357.988 255.114,358.261 254.286,358.453 254.168 C 358.644 254.049,358.800 253.513,358.800 252.976 C 358.800 252.439,358.980 252.000,359.200 252.000 C 359.420 252.000,359.600 251.471,359.600 250.824 C 359.600 250.177,359.780 249.536,360.000 249.400 C 360.220 249.264,360.400 248.533,360.400 247.776 C 360.400 247.019,360.580 246.400,360.800 246.400 C 361.020 246.400,361.200 245.860,361.200 245.200 C 361.200 244.540,361.380 244.000,361.600 244.000 C 361.820 244.000,362.000 243.280,362.000 242.400 C 362.000 241.520,362.180 240.800,362.400 240.800 C 362.620 240.800,362.800 239.990,362.800 239.000 C 362.800 238.010,362.980 237.200,363.200 237.200 C 363.420 237.200,363.600 236.480,363.600 235.600 C 363.600 234.720,363.780 234.000,364.000 234.000 C 364.220 234.000,364.400 233.021,364.400 231.824 C 364.400 230.627,364.580 229.536,364.800 229.400 C 365.020 229.264,365.200 228.274,365.200 227.200 C 365.200 226.126,365.380 225.136,365.600 225.000 C 365.820 224.864,366.000 223.514,366.000 222.000 C 366.000 220.486,366.180 219.136,366.400 219.000 C 366.629 218.859,366.800 216.804,366.800 214.200 C 366.800 211.596,366.971 209.541,367.200 209.400 C 367.448 209.247,367.600 205.670,367.600 200.000 C 367.600 194.330,367.448 190.753,367.200 190.600 C 366.971 190.459,366.800 188.404,366.800 185.800 C 366.800 183.196,366.629 181.141,366.400 181.000 C 366.180 180.864,366.000 179.514,366.000 178.000 C 366.000 176.486,365.820 175.136,365.600 175.000 C 365.380 174.864,365.200 173.874,365.200 172.800 C 365.200 171.726,365.020 170.736,364.800 170.600 C 364.580 170.464,364.400 169.373,364.400 168.176 C 364.400 166.979,364.220 166.000,364.000 166.000 C 363.780 166.000,363.600 165.291,363.600 164.424 C 363.600 163.557,363.420 162.736,363.200 162.600 C 362.980 162.464,362.800 161.643,362.800 160.776 C 362.800 159.909,362.620 159.200,362.400 159.200 C 362.180 159.200,362.000 158.480,362.000 157.600 C 362.000 156.720,361.820 156.000,361.600 156.000 C 361.380 156.000,361.200 155.460,361.200 154.800 C 361.200 154.140,361.020 153.600,360.800 153.600 C 360.580 153.600,360.400 152.981,360.400 152.224 C 360.400 151.467,360.220 150.736,360.000 150.600 C 359.780 150.464,359.600 149.823,359.600 149.176 C 359.600 148.529,359.420 148.000,359.200 148.000 C 358.980 148.000,358.800 147.561,358.800 147.024 C 358.800 146.487,358.644 145.951,358.453 145.832 C 358.261 145.714,357.988 144.886,357.845 143.991 C 357.702 143.097,357.429 142.058,357.239 141.683 C 357.049 141.307,356.671 140.460,356.400 139.800 C 356.129 139.140,355.748 138.287,355.553 137.905 C 355.359 137.523,355.200 136.848,355.200 136.405 C 355.200 135.962,355.020 135.600,354.800 135.600 C 354.580 135.600,354.400 135.240,354.400 134.800 C 354.400 134.360,354.220 134.000,354.000 134.000 C 353.780 134.000,353.600 133.645,353.600 133.212 C 353.600 132.779,353.240 131.783,352.800 131.000 C 352.360 130.217,352.000 129.311,352.000 128.988 C 352.000 128.665,351.820 128.400,351.600 128.400 C 351.380 128.400,351.200 128.040,351.200 127.600 C 351.200 127.160,351.020 126.800,350.800 126.800 C 350.580 126.800,350.400 126.530,350.400 126.200 C 350.400 125.870,350.220 125.600,350.000 125.600 C 349.780 125.600,349.600 125.240,349.600 124.800 C 349.600 124.360,349.420 124.000,349.200 124.000 C 348.980 124.000,348.800 123.640,348.800 123.200 C 348.800 122.760,348.620 122.400,348.400 122.400 C 348.180 122.400,348.000 122.040,348.000 121.600 C 348.000 121.160,347.820 120.800,347.600 120.800 C 347.380 120.800,347.200 120.440,347.200 120.000 C 347.200 119.560,347.020 119.200,346.800 119.200 C 346.580 119.200,346.400 118.964,346.400 118.675 C 346.400 118.387,346.040 117.764,345.600 117.292 C 345.160 116.820,344.800 116.156,344.800 115.817 C 344.800 115.478,344.620 115.200,344.400 115.200 C 344.180 115.200,344.000 114.922,344.000 114.583 C 344.000 114.244,343.640 113.580,343.200 113.108 C 342.760 112.636,342.400 112.013,342.400 111.725 C 342.400 111.436,342.220 111.200,342.000 111.200 C 341.780 111.200,341.600 111.028,341.600 110.818 C 341.600 110.450,340.045 107.916,339.206 106.917 C 338.983 106.651,338.800 106.291,338.799 106.117 C 338.799 105.943,338.259 105.170,337.600 104.400 C 336.941 103.630,336.401 102.815,336.401 102.588 C 336.400 102.362,336.040 101.917,335.600 101.600 C 335.160 101.283,334.800 100.775,334.800 100.472 C 334.800 100.169,334.260 99.417,333.600 98.800 C 332.940 98.183,332.400 97.481,332.400 97.240 C 332.400 96.998,332.220 96.800,332.000 96.800 C 331.780 96.800,331.600 96.602,331.600 96.360 C 331.600 96.119,331.060 95.417,330.400 94.800 C 329.740 94.183,329.200 93.560,329.200 93.414 C 329.200 93.268,328.345 92.299,327.300 91.261 C 326.255 90.223,324.957 88.749,324.416 87.987 C 322.015 84.602,315.398 77.985,312.013 75.584 C 311.251 75.043,309.777 73.745,308.739 72.700 C 307.701 71.655,306.732 70.800,306.586 70.800 C 306.440 70.800,305.817 70.260,305.200 69.600 C 304.583 68.940,303.881 68.400,303.640 68.400 C 303.398 68.400,303.200 68.220,303.200 68.000 C 303.200 67.780,303.002 67.600,302.760 67.600 C 302.519 67.600,301.817 67.060,301.200 66.400 C 300.583 65.740,299.831 65.200,299.528 65.200 C 299.225 65.200,298.717 64.840,298.400 64.400 C 298.083 63.960,297.638 63.600,297.412 63.599 C 297.185 63.599,296.370 63.059,295.600 62.400 C 294.830 61.741,293.990 61.201,293.733 61.201 C 293.477 61.200,293.207 61.065,293.133 60.900 C 292.920 60.421,289.805 58.400,289.278 58.400 C 289.015 58.400,288.800 58.220,288.800 58.000 C 288.800 57.780,288.564 57.600,288.275 57.600 C 287.987 57.600,287.364 57.240,286.892 56.800 C 286.420 56.360,285.756 56.000,285.417 56.000 C 285.078 56.000,284.800 55.820,284.800 55.600 C 284.800 55.380,284.522 55.200,284.183 55.200 C 283.844 55.200,283.180 54.840,282.708 54.400 C 282.236 53.960,281.613 53.600,281.325 53.600 C 281.036 53.600,280.800 53.420,280.800 53.200 C 280.800 52.980,280.440 52.800,280.000 52.800 C 279.560 52.800,279.200 52.620,279.200 52.400 C 279.200 52.180,278.840 52.000,278.400 52.000 C 277.960 52.000,277.600 51.820,277.600 51.600 C 277.600 51.380,277.240 51.200,276.800 51.200 C 276.360 51.200,276.000 51.020,276.000 50.800 C 276.000 50.580,275.640 50.400,275.200 50.400 C 274.760 50.400,274.400 50.220,274.400 50.000 C 274.400 49.780,274.130 49.600,273.800 49.600 C 273.470 49.600,273.200 49.420,273.200 49.200 C 273.200 48.980,272.840 48.800,272.400 48.800 C 271.960 48.800,271.600 48.620,271.600 48.400 C 271.600 48.180,271.335 48.000,271.012 48.000 C 270.689 48.000,269.783 47.640,269.000 47.200 C 268.217 46.760,267.221 46.400,266.788 46.400 C 266.355 46.400,266.000 46.220,266.000 46.000 C 266.000 45.780,265.640 45.600,265.200 45.600 C 264.760 45.600,264.400 45.420,264.400 45.200 C 264.400 44.980,263.961 44.800,263.424 44.800 C 262.887 44.800,262.336 44.620,262.200 44.400 C 262.064 44.180,261.603 44.000,261.176 44.000 C 260.749 44.000,260.400 43.820,260.400 43.600 C 260.400 43.380,260.038 43.200,259.595 43.200 C 259.152 43.200,258.477 43.033,258.095 42.829 C 257.136 42.316,253.386 41.200,252.625 41.200 C 252.281 41.200,252.000 41.020,252.000 40.800 C 252.000 40.580,251.460 40.400,250.800 40.400 C 250.140 40.400,249.600 40.220,249.600 40.000 C 249.600 39.780,248.880 39.600,248.000 39.600 C 247.120 39.600,246.400 39.420,246.400 39.200 C 246.400 38.980,245.860 38.800,245.200 38.800 C 244.540 38.800,244.000 38.620,244.000 38.400 C 244.000 38.180,243.280 38.000,242.400 38.000 C 241.520 38.000,240.800 37.820,240.800 37.600 C 240.800 37.380,240.091 37.200,239.224 37.200 C 238.357 37.200,237.536 37.020,237.400 36.800 C 237.264 36.580,236.443 36.400,235.576 36.400 C 234.709 36.400,234.000 36.220,234.000 36.000 C 234.000 35.780,233.111 35.600,232.024 35.600 C 230.937 35.600,229.936 35.420,229.800 35.200 C 229.664 34.980,228.584 34.800,227.400 34.800 C 226.216 34.800,225.136 34.620,225.000 34.400 C 224.864 34.180,223.514 34.000,222.000 34.000 C 220.486 34.000,219.136 33.820,219.000 33.600 C 218.858 33.371,216.796 33.200,214.176 33.200 C 211.392 33.200,209.600 33.043,209.600 32.800 C 209.600 32.550,207.208 32.400,203.224 32.400 C 199.404 32.400,196.748 32.560,196.600 32.800 " stroke="none" fill="#040404" fill-rule="evenodd"></path><path id="path1" d="" stroke="none" fill="#080404" fill-rule="evenodd"></path><path id="path2" d="" stroke="none" fill="#080404" fill-rule="evenodd"></path><path id="path3" d="" stroke="none" fill="#080404" fill-rule="evenodd"></path><path id="path4" d="" stroke="none" fill="#080404" fill-rule="evenodd"></path></g></svg>