<?xml version="1.0" standalone="no"?>
<!DOCTYPE svg PUBLIC "-//W3C//DTD SVG 20010904//EN"
 "http://www.w3.org/TR/2001/REC-SVG-20010904/DTD/svg10.dtd">
<svg version="1.0" xmlns="http://www.w3.org/2000/svg"
 width="1081.000000pt" height="1081.000000pt" viewBox="0 0 1081.000000 1081.000000"
 preserveAspectRatio="xMidYMid meet">
<metadata>
Created by potrace 1.14, written by Peter Selinger 2001-2017
</metadata>
<g transform="translate(0.000000,1081.000000) scale(0.100000,-0.100000)"
fill="#000000" stroke="none">
<path d="M5494 9654 c-142 -153 -148 -160 -239 -269 -27 -33 -52 -62 -55 -65
-17 -15 -169 -225 -233 -322 -139 -211 -203 -348 -262 -563 -41 -150 -66 -270
-80 -391 -4 -33 -9 -68 -11 -79 -10 -54 -18 -238 -18 -400 0 -158 11 -391 19
-405 1 -3 6 -30 9 -60 7 -64 10 -80 37 -219 47 -250 133 -511 242 -742 l45
-94 4 -137 5 -137 -91 157 c-51 86 -111 185 -134 220 -23 35 -42 66 -42 68 0
3 -15 28 -33 57 -33 52 -116 214 -150 293 -39 93 -109 319 -122 394 -3 19 -10
60 -16 90 -37 206 -32 566 11 783 23 114 2 73 -41 -81 -41 -143 -61 -244 -75
-370 -1 -18 -5 -41 -8 -50 -3 -9 -8 -55 -11 -102 -3 -47 -8 -112 -11 -145 -6
-89 -6 -505 1 -620 5 -97 11 -181 21 -295 7 -79 21 -216 29 -280 2 -19 7 -60
11 -90 3 -30 8 -62 9 -70 2 -8 6 -42 10 -75 3 -32 8 -62 10 -65 1 -3 6 -36 10
-75 4 -38 8 -72 10 -76 24 -39 24 -872 0 -1021 -2 -13 -6 -45 -10 -71 -16
-131 -125 -356 -220 -452 -134 -137 -354 -173 -510 -84 -153 88 -273 282 -300
484 -4 28 -9 61 -11 75 -6 35 -5 269 1 305 6 33 17 94 20 110 23 103 135 348
220 480 27 42 135 188 149 200 6 6 20 21 31 35 l20 24 -35 -24 c-54 -37 -193
-154 -257 -218 -277 -275 -529 -680 -641 -1032 -69 -216 -117 -451 -129 -635
-12 -168 -6 -432 11 -565 2 -14 7 -56 10 -93 4 -37 9 -76 11 -85 1 -9 6 -39 9
-66 4 -27 9 -52 11 -55 1 -3 6 -24 9 -46 4 -22 9 -48 12 -57 3 -9 6 -25 8 -35
9 -47 60 -201 96 -288 181 -445 503 -796 929 -1014 213 -108 484 -196 731
-236 19 -3 60 -10 90 -15 103 -17 125 -19 250 -27 223 -14 900 -6 1013 12 12
2 51 6 87 10 393 38 813 177 1085 358 64 43 247 176 255 186 3 3 23 21 45 40
96 81 256 244 315 321 19 25 37 47 41 50 4 3 40 55 81 115 206 306 318 637
355 1045 14 152 7 498 -11 586 -2 12 -7 45 -11 75 -12 95 -75 329 -121 447
-75 195 -198 443 -346 701 -26 46 -48 85 -48 86 0 4 -97 162 -177 288 -268
425 -350 797 -269 1220 16 81 13 82 -14 2 -38 -110 -35 -98 -64 -224 -21 -89
-38 -192 -39 -238 -1 -48 -37 37 -132 316 -25 73 -86 239 -136 368 -132 342
-164 449 -187 629 -18 133 -3 282 40 408 24 70 76 171 122 235 65 91 63 88 41
71 -269 -196 -427 -483 -485 -880 -19 -134 -24 -210 -24 -396 -1 -170 -3 -189
-15 -170 -8 11 -17 23 -21 26 -3 3 -13 17 -22 31 -15 24 -246 309 -286 354
-56 62 -61 76 -51 149 10 81 51 244 79 319 16 42 17 48 4 32 -23 -28 -97 -187
-124 -265 -12 -36 -25 -68 -29 -73 -12 -13 -200 248 -293 408 -76 130 -160
325 -174 405 -3 14 -9 41 -14 60 -5 19 -12 62 -15 95 -4 33 -8 67 -10 75 -15
58 -22 387 -12 505 24 261 82 481 186 700 26 55 66 130 89 168 23 37 38 67 34
67 -5 0 -48 -43 -98 -96z"/>
</g>
</svg>
